<?xml version="1.0" encoding="UTF-8"?>
<!DOCTYPE svg PUBLIC "-//W3C//DTD SVG 1.1//EN" "http://www.w3.org/Graphics/SVG/1.1/DTD/svg11.dtd">
<svg xmlns="http://www.w3.org/2000/svg" version="1.1" width="499px" height="499px" style="shape-rendering:geometricPrecision; text-rendering:geometricPrecision; image-rendering:optimizeQuality; fill-rule:evenodd; clip-rule:evenodd" xmlns:xlink="http://www.w3.org/1999/xlink">
<g><path style="opacity:1" fill="#f9f9f9" d="M -0.5,-0.5 C 165.833,-0.5 332.167,-0.5 498.5,-0.5C 498.5,165.833 498.5,332.167 498.5,498.5C 332.167,498.5 165.833,498.5 -0.5,498.5C -0.5,332.167 -0.5,165.833 -0.5,-0.5 Z"/></g>
<g><path style="opacity:1" fill="#6f6f6f" d="M 231.5,5.5 C 233.337,5.63945 233.67,6.30612 232.5,7.5C 231.702,7.04311 231.369,6.37644 231.5,5.5 Z"/></g>
<g><path style="opacity:1" fill="#0c0c0f" d="M 327.5,211.5 C 325.926,211.063 324.759,210.063 324,208.5C 323.886,201.421 323.219,194.421 322,187.5C 320.404,183.736 317.571,181.736 313.5,181.5C 309.191,182.153 305.191,183.653 301.5,186C 294.54,191.292 287.873,196.958 281.5,203C 279.975,204.009 278.308,204.509 276.5,204.5C 276.253,202.142 276.919,200.142 278.5,198.5C 284.663,192.505 290.996,186.671 297.5,181C 303.257,176.943 309.591,174.943 316.5,175C 322.87,176.436 327.037,180.269 329,186.5C 330.033,195.002 329.533,203.335 327.5,211.5 Z"/></g>
<g><path style="opacity:1" fill="#101113" d="M 208.5,195.5 C 209.81,197.148 211.143,198.814 212.5,200.5C 212.167,200.833 211.833,201.167 211.5,201.5C 200.197,195.18 189.197,188.347 178.5,181C 176.833,180.333 175.167,180.333 173.5,181C 171.997,184.469 171.33,188.136 171.5,192C 171.52,198.697 172.52,205.197 174.5,211.5C 174.043,212.298 173.376,212.631 172.5,212.5C 168.812,202.849 167.312,192.849 168,182.5C 169.857,176.822 173.691,174.655 179.5,176C 189.507,182.003 199.173,188.503 208.5,195.5 Z"/></g>
<g><path style="opacity:1" fill="#828795" d="M 208.5,195.5 C 210.595,196.412 212.595,197.579 214.5,199C 215.793,199.49 217.127,199.657 218.5,199.5C 217.766,200.708 217.433,202.041 217.5,203.5C 226.215,201.659 235.048,200.659 244,200.5C 250.91,200.431 257.743,201.097 264.5,202.5C 268.51,203.157 270.176,201.49 269.5,197.5C 272.43,198.299 275.43,198.632 278.5,198.5C 276.919,200.142 276.253,202.142 276.5,204.5C 278.308,204.509 279.975,204.009 281.5,203C 287.873,196.958 294.54,191.292 301.5,186C 305.191,183.653 309.191,182.153 313.5,181.5C 317.571,181.736 320.404,183.736 322,187.5C 323.219,194.421 323.886,201.421 324,208.5C 324.759,210.063 325.926,211.063 327.5,211.5C 327.253,213.858 327.919,215.858 329.5,217.5C 327.775,217.843 327.275,218.843 328,220.5C 333.004,226.522 337.504,232.855 341.5,239.5C 341.333,240.167 341.167,240.833 341,241.5C 339.027,242.64 337.193,243.973 335.5,245.5C 338.205,245.998 340.538,244.998 342.5,242.5C 342.833,242.833 343.167,243.167 343.5,243.5C 344.726,248.415 345.393,253.415 345.5,258.5C 340.167,259.167 340.167,259.833 345.5,260.5C 345.993,267.099 344.993,273.432 342.5,279.5C 340.922,280.298 339.256,280.798 337.5,281C 339.002,281.583 340.335,282.416 341.5,283.5C 338.233,288.372 335.233,293.372 332.5,298.5C 332.608,299.442 332.941,300.275 333.5,301C 335.134,301.494 336.801,301.66 338.5,301.5C 332.008,303.998 326.841,302.331 323,296.5C 324.835,285.622 325.502,274.622 325,263.5C 321.181,251.023 313.681,241.523 302.5,235C 296.363,230.899 289.696,228.066 282.5,226.5C 278.645,223.965 274.312,222.965 269.5,223.5C 265.837,223.048 262.17,222.548 258.5,222C 257.944,221.617 257.611,221.117 257.5,220.5C 260.084,219.952 261.084,218.285 260.5,215.5C 257.05,214.756 255.384,216.09 255.5,219.5C 251.616,216.781 248.616,213.281 246.5,209C 242.409,207.773 238.909,208.606 236,211.5C 235.427,216.645 233.261,220.978 229.5,224.5C 217,227.58 205,232.08 193.5,238C 177.177,249.624 171.51,265.291 176.5,285C 176.321,291.875 173.988,297.875 169.5,303C 166.44,304.663 163.44,304.83 160.5,303.5C 162.595,303.24 163.928,302.074 164.5,300C 163.229,297.067 161.562,294.401 159.5,292C 161.112,289.384 163.112,287.05 165.5,285C 162.439,285.864 159.439,287.03 156.5,288.5C 154.346,283.035 153.012,277.368 152.5,271.5C 155.518,271.296 158.518,270.963 161.5,270.5C 161.5,269.5 161.5,268.5 161.5,267.5C 158.455,267.508 155.455,267.841 152.5,268.5C 152.84,263.777 153.507,259.11 154.5,254.5C 157.107,253.682 159.774,253.182 162.5,253C 160.406,251.648 158.073,251.148 155.5,251.5C 157.651,243.53 161.151,236.197 166,229.5C 170.345,225.655 174.512,221.655 178.5,217.5C 176.977,215.717 174.977,215.051 172.5,215.5C 172.5,214.5 172.5,213.5 172.5,212.5C 173.376,212.631 174.043,212.298 174.5,211.5C 172.52,205.197 171.52,198.697 171.5,192C 171.33,188.136 171.997,184.469 173.5,181C 175.167,180.333 176.833,180.333 178.5,181C 189.197,188.347 200.197,195.18 211.5,201.5C 211.833,201.167 212.167,200.833 212.5,200.5C 211.143,198.814 209.81,197.148 208.5,195.5 Z"/></g>
<g><path style="opacity:1" fill="#0e0f10" d="M 269.5,197.5 C 270.176,201.49 268.51,203.157 264.5,202.5C 257.743,201.097 250.91,200.431 244,200.5C 235.048,200.659 226.215,201.659 217.5,203.5C 217.433,202.041 217.766,200.708 218.5,199.5C 227.589,194.949 237.256,192.949 247.5,193.5C 255.256,192.789 262.589,194.122 269.5,197.5 Z"/></g>
<g><path style="opacity:1" fill="#11141b" d="M 257.5,220.5 C 256.833,220.167 256.167,219.833 255.5,219.5C 255.384,216.09 257.05,214.756 260.5,215.5C 261.084,218.285 260.084,219.952 257.5,220.5 Z"/></g>
<g><path style="opacity:1" fill="#08090d" d="M 224.5,212.5 C 231.997,211.804 233.997,214.637 230.5,221C 223.188,221.871 221.188,219.038 224.5,212.5 Z"/></g>
<g><path style="opacity:1" fill="#e8c2c0" d="M 269.5,223.5 C 274.312,222.965 278.645,223.965 282.5,226.5C 281.957,226.56 281.624,226.893 281.5,227.5C 282.325,228.386 283.325,228.719 284.5,228.5C 285.041,231.652 284.041,234.152 281.5,236C 275.624,238.517 269.624,240.85 263.5,243C 257.267,243.686 251.267,244.853 245.5,246.5C 243.901,246.232 242.568,246.566 241.5,247.5C 236.172,247.832 230.838,248.166 225.5,248.5C 221.744,248.537 218.078,248.037 214.5,247C 209.024,245.048 207.357,241.382 209.5,236C 220.551,230.653 232.218,227.319 244.5,226C 255.167,225.667 265.833,225.333 276.5,225C 273.964,224.814 271.631,224.314 269.5,223.5 Z"/></g>
<g><path style="opacity:1" fill="#f4b9b7" d="M 256.5,226.5 C 261.057,228.282 265.724,228.615 270.5,227.5C 270.833,228.167 271.167,228.833 271.5,229.5C 272.086,229.291 272.586,228.957 273,228.5C 275.177,229.236 277.343,230.236 279.5,231.5C 276.811,236.01 272.811,238.177 267.5,238C 267.833,238.333 268.167,238.667 268.5,239C 266.754,239.471 265.087,240.138 263.5,241C 249.136,243.409 234.47,245.242 219.5,246.5C 218.803,244.615 217.803,244.282 216.5,245.5C 212.541,243.754 211.207,240.921 212.5,237C 216.712,234.856 221.046,234.023 225.5,234.5C 232.136,230.644 239.136,228.978 246.5,229.5C 249.897,228.283 253.23,227.283 256.5,226.5 Z"/></g>
<g><path style="opacity:1" fill="#131212" d="M 245.5,246.5 C 247.157,265.979 248.157,285.646 248.5,305.5C 251.93,305.107 255.096,305.773 258,307.5C 258.944,310.347 258.444,312.847 256.5,315C 249.5,315.667 242.5,315.667 235.5,315C 233.487,309.847 235.154,307.013 240.5,306.5C 240.303,286.82 240.636,267.153 241.5,247.5C 242.568,246.566 243.901,246.232 245.5,246.5 Z"/></g>
<g><path style="opacity:1" fill="#0b0b0d" d="M 329.5,217.5 C 336.497,222.831 342.83,228.831 348.5,235.5C 358.421,229.524 369.087,226.024 380.5,225C 374.016,227.704 367.349,230.037 360.5,232C 356.235,233.619 352.569,235.952 349.5,239C 351.666,245.542 352.999,252.209 353.5,259C 362.177,259.48 370.844,259.313 379.5,258.5C 377.844,260.06 375.844,261.06 373.5,261.5C 372.167,261.5 370.833,261.5 369.5,261.5C 364.167,261.5 358.833,261.5 353.5,261.5C 353.5,264.167 353.5,266.833 353.5,269.5C 352.238,273.143 351.238,276.976 350.5,281C 350.514,282.385 350.848,283.551 351.5,284.5C 360.226,287.632 368.893,290.965 377.5,294.5C 374.503,295.476 371.503,295.31 368.5,294C 362.36,290.927 356.026,288.427 349.5,286.5C 348.624,286.369 347.957,286.702 347.5,287.5C 345.729,291.381 343.729,295.048 341.5,298.5C 340.167,299.167 339.167,300.167 338.5,301.5C 336.801,301.66 335.134,301.494 333.5,301C 332.941,300.275 332.608,299.442 332.5,298.5C 335.233,293.372 338.233,288.372 341.5,283.5C 340.335,282.416 339.002,281.583 337.5,281C 339.256,280.798 340.922,280.298 342.5,279.5C 344.993,273.432 345.993,267.099 345.5,260.5C 340.167,259.833 340.167,259.167 345.5,258.5C 345.393,253.415 344.726,248.415 343.5,243.5C 343.167,243.167 342.833,242.833 342.5,242.5C 340.538,244.998 338.205,245.998 335.5,245.5C 337.193,243.973 339.027,242.64 341,241.5C 341.167,240.833 341.333,240.167 341.5,239.5C 337.504,232.855 333.004,226.522 328,220.5C 327.275,218.843 327.775,217.843 329.5,217.5 Z"/></g>
<g><path style="opacity:1" fill="#8c8c8c" d="M 379.5,258.5 C 380.404,259.209 380.737,260.209 380.5,261.5C 378.167,261.5 375.833,261.5 373.5,261.5C 375.844,261.06 377.844,260.06 379.5,258.5 Z"/></g>
<g><path style="opacity:1" fill="#a6a6a6" d="M 369.5,261.5 C 364.695,262.487 359.695,262.821 354.5,262.5C 354.802,265.059 354.468,267.393 353.5,269.5C 353.5,266.833 353.5,264.167 353.5,261.5C 358.833,261.5 364.167,261.5 369.5,261.5 Z"/></g>
<g><path style="opacity:1" fill="#0d0d0f" d="M 172.5,215.5 C 174.977,215.051 176.977,215.717 178.5,217.5C 174.512,221.655 170.345,225.655 166,229.5C 161.151,236.197 157.651,243.53 155.5,251.5C 158.073,251.148 160.406,251.648 162.5,253C 159.774,253.182 157.107,253.682 154.5,254.5C 153.507,259.11 152.84,263.777 152.5,268.5C 155.455,267.841 158.455,267.508 161.5,267.5C 161.5,268.5 161.5,269.5 161.5,270.5C 158.518,270.963 155.518,271.296 152.5,271.5C 153.012,277.368 154.346,283.035 156.5,288.5C 159.439,287.03 162.439,285.864 165.5,285C 163.112,287.05 161.112,289.384 159.5,292C 161.562,294.401 163.229,297.067 164.5,300C 163.928,302.074 162.595,303.24 160.5,303.5C 158.152,301.32 155.652,299.32 153,297.5C 148.845,300.987 144.678,304.487 140.5,308C 139.365,308.749 138.365,308.583 137.5,307.5C 141.185,302.981 145.352,298.981 150,295.5C 149.032,289.084 147.532,282.751 145.5,276.5C 145.5,275.167 145.5,273.833 145.5,272.5C 142.615,272.194 139.948,272.527 137.5,273.5C 132.848,274.762 128.181,274.762 123.5,273.5C 126.5,272.833 129.5,272.167 132.5,271.5C 133.167,271.5 133.833,271.5 134.5,271.5C 138.04,271.247 141.373,270.581 144.5,269.5C 145.671,263.658 146.671,257.658 147.5,251.5C 139.42,251.071 131.42,250.238 123.5,249C 131.788,249.37 140.121,249.536 148.5,249.5C 152.26,235.089 160.26,223.756 172.5,215.5 Z"/></g>
<g><path style="opacity:1" fill="#747474" d="M 144.5,269.5 C 141.373,270.581 138.04,271.247 134.5,271.5C 137.507,269.825 140.84,269.159 144.5,269.5 Z"/></g>
<g><path style="opacity:1" fill="#6a6a6a" d="M 132.5,271.5 C 129.5,272.167 126.5,272.833 123.5,273.5C 122.957,273.44 122.624,273.107 122.5,272.5C 125.768,271.513 129.102,271.18 132.5,271.5 Z"/></g>
<g><path style="opacity:1" fill="#767676" d="M 137.5,273.5 C 139.948,272.527 142.615,272.194 145.5,272.5C 145.5,273.833 145.5,275.167 145.5,276.5C 144.596,275.791 144.263,274.791 144.5,273.5C 142.167,273.5 139.833,273.5 137.5,273.5 Z"/></g>
<g><path style="opacity:1" fill="#9a9a9a" d="M 353.5,269.5 C 353.56,274.693 352.893,279.693 351.5,284.5C 350.848,283.551 350.514,282.385 350.5,281C 351.238,276.976 352.238,273.143 353.5,269.5 Z"/></g>
<g><path style="opacity:1" fill="#7d7a81" d="M 349.5,286.5 C 348.568,290.296 347.234,293.963 345.5,297.5C 344.311,298.429 342.978,298.762 341.5,298.5C 343.729,295.048 345.729,291.381 347.5,287.5C 347.957,286.702 348.624,286.369 349.5,286.5 Z"/></g>
</svg>
